<svg xmlns="http://www.w3.org/2000/svg" width="163.292" height="24.935" viewBox="0 0 163.292 24.935">
  <g id="Group_23148" data-name="Group 23148" transform="translate(201.356 -2.022)">
    <g id="_010101ff" data-name=" 010101ff" transform="translate(-92.943 2.196)">
      <g id="Path_67159" data-name="Path 67159">
        <path id="Path_67168" data-name="Path 67168" d="M-80.606,2.725c-.041-.216.084-.539.349-.5q14.076.005,28.153,0c.374-.051.629.281.876.5q2.424,2.434,4.921,4.795c.809.77,1.556,1.608,2.409,2.328C-43.283,9.215-42.64,8.6-41.984,8c1.6-1.487,3.09-3.1,4.724-4.551a11.94,11.94,0,0,1,1.332-1.217c3.129-.023,6.26.016,9.389-.021-.017.165.008.359-.151.467-1.638,1.555-3.334,3.044-4.984,4.586-2.522,2.294-5.018,4.622-7.641,6.805.409.435.9.779,1.347,1.18,3.251,2.977,6.465,6,9.675,9.02a31.86,31.86,0,0,1,2.556,2.514q-5.265.042-10.53,0c-2.06-1.755-3.874-3.78-5.864-5.611-.719-.656-1.406-1.347-2.1-2.036a1.746,1.746,0,0,0-.515-.354c-1.167.934-2.155,2.071-3.284,3.046-.58.5-1.1,1.065-1.668,1.578-1.275,1.069-2.361,2.351-3.67,3.378-3.069.034-6.143.021-9.213.006a2.747,2.747,0,0,1,.645-.747c3.322-3.06,6.624-6.135,9.967-9.17.923-.863,1.933-1.629,2.841-2.51-1.422-1.189-2.8-2.434-4.159-3.688a19.542,19.542,0,0,0-2.2-1.99q-8.73-.024-17.459,0c-.013.932,0,1.864-.012,2.8a5.161,5.161,0,0,0,1.7.125c5.86.016,11.721-.03,17.581.023-1.389,1.851-2.832,3.667-4.27,5.477H-71.4a4.942,4.942,0,0,0-1.55.115v3.163a2.853,2.853,0,0,0,.646.071q6.635-.009,13.268,0c.587,0,1.176-.023,1.763.032-.629.718-1.4,1.28-2.065,1.96-.919.747-1.706,1.635-2.613,2.395A22.338,22.338,0,0,1-64.171,26.8c-5.425.023-10.853-.021-16.279.022-.255-.374-.136-.842-.159-1.263Q-80.6,14.141-80.606,2.725Z" transform="translate(80.617 -2.216)" fill="#e66e06"/>
      </g>
    </g>
    <g id="Pocin" transform="translate(-201.356 2.022)" style="isolation: isolate">
      <g id="Group_23148-2" data-name="Group 23148" style="isolation: isolate">
        <path id="Path_67169" data-name="Path 67169" d="M-186.193,3.308a7.777,7.777,0,0,1,3.257,2.96,8.441,8.441,0,0,1,1.156,4.464,8.445,8.445,0,0,1-1.156,4.465,7.769,7.769,0,0,1-3.257,2.959,10.749,10.749,0,0,1-4.868,1.051h-3.852v7.564h-6.443V2.257h10.3A10.737,10.737,0,0,1-186.193,3.308Zm-5.463,10.646a3.364,3.364,0,0,0,2.434-.858,3.122,3.122,0,0,0,.893-2.363,3.121,3.121,0,0,0-.893-2.363,3.368,3.368,0,0,0-2.434-.859h-3.257v6.444Z" transform="translate(201.356 -2.046)" fill="#fff"/>
        <path id="Path_67170" data-name="Path 67170" d="M-158.787,25.329a12.677,12.677,0,0,1-6.46,1.628,12.683,12.683,0,0,1-6.461-1.628,11.423,11.423,0,0,1-4.377-4.466,13.015,13.015,0,0,1-1.559-6.373,13.015,13.015,0,0,1,1.559-6.373,11.415,11.415,0,0,1,4.377-4.465,12.683,12.683,0,0,1,6.461-1.629,12.678,12.678,0,0,1,6.46,1.629,11.411,11.411,0,0,1,4.378,4.465,13.014,13.014,0,0,1,1.558,6.373,13.014,13.014,0,0,1-1.558,6.373A11.42,11.42,0,0,1-158.787,25.329Zm-6.46-3.7a5.112,5.112,0,0,0,4.219-2.013,8.014,8.014,0,0,0,1.594-5.131,8.015,8.015,0,0,0-1.594-5.131,5.112,5.112,0,0,0-4.219-2.013,5.115,5.115,0,0,0-4.22,2.013,8.015,8.015,0,0,0-1.594,5.131,8.014,8.014,0,0,0,1.594,5.131A5.115,5.115,0,0,0-165.248,21.633Z" transform="translate(198.935 -2.022)" fill="#fff"/>
        <path id="Path_67171" data-name="Path 67171" d="M-142.314,3.563a13.085,13.085,0,0,1,6.5-1.541,11.6,11.6,0,0,1,5.324,1.192,9.612,9.612,0,0,1,3.747,3.309,10.033,10.033,0,0,1,1.611,4.851h-6.443a5.142,5.142,0,0,0-1.559-2.924,4.318,4.318,0,0,0-3.03-1.1,4.467,4.467,0,0,0-3.869,1.961,8.814,8.814,0,0,0-1.384,5.183,8.816,8.816,0,0,0,1.384,5.184,4.466,4.466,0,0,0,3.869,1.96,4.321,4.321,0,0,0,3.03-1.1,5.15,5.15,0,0,0,1.559-2.925h6.443a10.033,10.033,0,0,1-1.611,4.851,9.628,9.628,0,0,1-3.747,3.31,11.6,11.6,0,0,1-5.324,1.191,13.066,13.066,0,0,1-6.5-1.542,10.431,10.431,0,0,1-4.22-4.342A13.973,13.973,0,0,1-148,14.49a13.973,13.973,0,0,1,1.471-6.583A10.444,10.444,0,0,1-142.314,3.563Z" transform="translate(195.91 -2.022)" fill="#fff"/>
        <path id="Path_67172" data-name="Path 67172" d="M-113.248,2.257V26.771h-6.443V2.257Z" transform="translate(193.019 -2.046)" fill="#fff"/>
        <path id="Path_67173" data-name="Path 67173" d="M-108.226,2.257h5.849l8.93,13.553V2.257h6.338V26.771h-5.848l-8.931-13.553V26.771h-6.338Z" transform="translate(191.849 -2.046)" fill="#fff"/>
      </g>
    </g>
  </g>
</svg>
